<svg width="30" height="30" viewBox="0 0 30 30" fill="none" xmlns="http://www.w3.org/2000/svg">
<path d="M7.5 30V22.5H0V16.5H9.675L12.225 20.325C12.35 20.525 12.525 20.6875 12.75 20.8125C12.975 20.9375 13.2125 21 13.4625 21C13.7875 21 14.0875 20.9 14.3625 20.7C14.6375 20.5 14.825 20.25 14.925 19.95L16.95 13.875L18.225 15.825C18.375 16.025 18.5625 16.1875 18.7875 16.3125C19.0125 16.4375 19.25 16.5 19.5 16.5H30V22.5H22.5V30H7.5ZM13.05 16.125L11.7375 14.175C11.6125 13.975 11.4375 13.8125 11.2125 13.6875C10.9875 13.5625 10.75 13.5 10.5 13.5H0V7.5H7.5V0H22.5V7.5H30V13.5H20.2875L17.7375 9.675C17.6125 9.475 17.4375 9.3125 17.2125 9.1875C16.9875 9.0625 16.75 9 16.5 9C16.175 9 15.8812 9.1 15.6187 9.3C15.3562 9.5 15.175 9.75 15.075 10.05L13.05 16.125Z" fill="white"/>
</svg>
