<svg width="20" height="19" viewBox="0 0 20 19" fill="none" xmlns="http://www.w3.org/2000/svg">
<path d="M0 18.992V9.992C0 9.442 0.195833 8.97117 0.5875 8.5795C0.979167 8.18783 1.45 7.992 2 7.992H7V9.992C7 10.8253 7.29167 11.5337 7.875 12.117C8.45833 12.7003 9.16667 12.992 10 12.992C10.8333 12.992 11.5417 12.7003 12.125 12.117C12.7083 11.5337 13 10.8253 13 9.992V7.992H18C18.55 7.992 19.0208 8.18783 19.4125 8.5795C19.8042 8.97117 20 9.442 20 9.992V18.992H0ZM2 16.992H18V9.992H15C15 11.3753 14.5125 12.5545 13.5375 13.5295C12.5625 14.5045 11.3833 14.992 10 14.992C8.61667 14.992 7.4375 14.5045 6.4625 13.5295C5.4875 12.5545 5 11.3753 5 9.992H2V16.992ZM10 10.992C9.71667 10.992 9.47917 10.8962 9.2875 10.7045C9.09583 10.5128 9 10.2753 9 9.992C9 8.17533 9.20833 6.38367 9.625 4.617C10.0417 2.85033 10.95 1.392 12.35 0.242C12.5667 0.0586667 12.8083 -0.0205 13.075 0.0045C13.3417 0.0295 13.5667 0.150333 13.75 0.367C13.9333 0.583667 14.0125 0.825333 13.9875 1.092C13.9625 1.35867 13.8417 1.58367 13.625 1.767C12.4583 2.75033 11.7292 3.98367 11.4375 5.467C11.1458 6.95033 11 8.45867 11 9.992C11 10.2753 10.9042 10.5128 10.7125 10.7045C10.5208 10.8962 10.2833 10.992 10 10.992ZM3.75 13.492C3.96667 13.492 4.14583 13.4212 4.2875 13.2795C4.42917 13.1378 4.5 12.9587 4.5 12.742C4.5 12.5253 4.42917 12.3462 4.2875 12.2045C4.14583 12.0628 3.96667 11.992 3.75 11.992C3.53333 11.992 3.35417 12.0628 3.2125 12.2045C3.07083 12.3462 3 12.5253 3 12.742C3 12.9587 3.07083 13.1378 3.2125 13.2795C3.35417 13.4212 3.53333 13.492 3.75 13.492ZM4.75 15.992C4.96667 15.992 5.14583 15.9212 5.2875 15.7795C5.42917 15.6378 5.5 15.4587 5.5 15.242C5.5 15.0253 5.42917 14.8462 5.2875 14.7045C5.14583 14.5628 4.96667 14.492 4.75 14.492C4.53333 14.492 4.35417 14.5628 4.2125 14.7045C4.07083 14.8462 4 15.0253 4 15.242C4 15.4587 4.07083 15.6378 4.2125 15.7795C4.35417 15.9212 4.53333 15.992 4.75 15.992ZM16.25 13.492C16.4667 13.492 16.6458 13.4212 16.7875 13.2795C16.9292 13.1378 17 12.9587 17 12.742C17 12.5253 16.9292 12.3462 16.7875 12.2045C16.6458 12.0628 16.4667 11.992 16.25 11.992C16.0333 11.992 15.8542 12.0628 15.7125 12.2045C15.5708 12.3462 15.5 12.5253 15.5 12.742C15.5 12.9587 15.5708 13.1378 15.7125 13.2795C15.8542 13.4212 16.0333 13.492 16.25 13.492ZM2 16.992C3.2 16.992 4.53333 16.992 6 16.992C7.46667 16.992 8.8 16.992 10 16.992C11.2 16.992 12.5333 16.992 14 16.992C15.4667 16.992 16.8 16.992 18 16.992H2Z" fill="#006565"/>
</svg>
