<svg width="35" height="45" viewBox="0 0 35 45" fill="none" xmlns="http://www.w3.org/2000/svg">
<path d="M17.5 30.577C20.9808 27.4167 23.2052 25.2156 24.1731 23.9736C25.1411 22.7316 25.625 21.4868 25.625 20.2392C25.625 19.0254 25.1828 17.9801 24.2983 17.1035C23.4139 16.2268 22.3593 15.7885 21.1346 15.7885C20.3878 15.7885 19.694 15.9315 19.053 16.2176C18.4121 16.5036 17.8944 16.899 17.5 17.4039C17.0962 16.899 16.5745 16.5036 15.9351 16.2176C15.2957 15.9315 14.6058 15.7885 13.8654 15.7885C12.6539 15.7885 11.6026 16.226 10.7115 17.101C9.82052 17.976 9.375 19.0215 9.375 20.2374C9.375 20.8792 9.46096 21.4703 9.63287 22.0107C9.80478 22.5512 10.183 23.1845 10.7675 23.9107C11.352 24.6369 12.1743 25.5239 13.2344 26.5717C14.2945 27.6195 15.7164 28.9546 17.5 30.577ZM17.5 44.7116C12.4776 43.2212 8.30529 40.1787 4.98318 35.5842C1.66106 30.9896 0 25.8141 0 20.0577V6.53847L17.5 0L35 6.53847V20.0577C35 25.8141 33.339 30.9896 30.0169 35.5842C26.6947 40.1787 22.5225 43.2212 17.5 44.7116Z" fill="white"/>
</svg>
