<svg width="50" height="18" viewBox="0 0 50 18" fill="none" xmlns="http://www.w3.org/2000/svg">
<path d="M19.8418 3.55371C20.4807 3.55376 20.9874 3.66103 21.3623 3.87402C21.7416 4.08283 22.0321 4.32138 22.2324 4.58984C22.4367 4.85378 22.5943 5.07087 22.7051 5.24121H22.8584V3.68164H24.3154V13.7812C24.3154 14.625 24.1238 15.3114 23.7402 15.8398C23.361 16.3723 22.8494 16.7617 22.2061 17.0088C21.5669 17.2602 20.8553 17.3867 20.0713 17.3867C19.3428 17.3867 18.7164 17.2929 18.1924 17.1055C17.6682 16.9222 17.2313 16.6785 16.8818 16.376C16.5369 16.0779 16.2621 15.7586 16.0576 15.418L17.2588 14.5742C17.3951 14.7531 17.5677 14.9575 17.7764 15.1875C17.9851 15.4218 18.2707 15.6245 18.6328 15.7949C18.9993 15.9696 19.479 16.0566 20.0713 16.0566C20.8639 16.0566 21.5186 15.865 22.0342 15.4814C22.5496 15.0979 22.8076 14.4967 22.8076 13.6787V11.6846H22.6797C22.5689 11.8635 22.4106 12.0854 22.2061 12.3496C22.0058 12.6094 21.716 12.8414 21.3369 13.0459C20.9619 13.2462 20.4546 13.3467 19.8154 13.3467C19.0229 13.3466 18.3113 13.1591 17.6807 12.7842C17.0543 12.4092 16.5579 11.8633 16.1914 11.1475C15.8293 10.4317 15.6485 9.56254 15.6484 8.54004C15.6484 7.53452 15.8251 6.65875 16.1787 5.91309C16.5324 5.16309 17.0246 4.58292 17.6553 4.17383C18.2859 3.76052 19.0151 3.55371 19.8418 3.55371ZM4.83301 0.230469C5.67668 0.230493 6.42681 0.381061 7.08301 0.683594C7.73924 0.981887 8.25906 1.39126 8.64258 1.91113C9.03033 2.43097 9.23452 3.0212 9.25586 3.68164H7.72168C7.64493 3.03402 7.33446 2.53077 6.78906 2.17285C6.24361 1.8149 5.57386 1.63672 4.78125 1.63672C4.20196 1.63676 3.69525 1.73057 3.26074 1.91797C2.83034 2.10547 2.4929 2.36328 2.25 2.69141C2.01159 3.0194 1.89259 3.39218 1.89258 3.80957C1.89258 4.15897 1.97544 4.45953 2.1416 4.71094C2.31206 4.9581 2.52974 5.16486 2.79395 5.33105C3.05809 5.49294 3.3353 5.62689 3.625 5.7334C3.9147 5.83564 4.18098 5.91949 4.42383 5.9834L5.75293 6.34082C6.09376 6.43029 6.47312 6.55429 6.89062 6.71191C7.3125 6.86958 7.71609 7.08469 8.09961 7.35742C8.48713 7.62579 8.80631 7.97097 9.05762 8.39258C9.30904 8.81445 9.43555 9.33265 9.43555 9.94629C9.4355 10.6535 9.2495 11.2924 8.87891 11.8633C8.51245 12.4343 7.97587 12.8889 7.26855 13.2256C6.56546 13.5622 5.71071 13.7305 4.70508 13.7305C3.76758 13.7305 2.95561 13.5789 2.26953 13.2764C1.58782 12.9739 1.05121 12.5518 0.65918 12.0107C0.271396 11.4695 0.0511364 10.8409 0 10.125H1.63672C1.67933 10.6193 1.84597 11.0287 2.13574 11.3525C2.42973 11.672 2.80076 11.9107 3.24805 12.0684C3.69962 12.2217 4.18537 12.2979 4.70508 12.2979C5.31015 12.2978 5.85346 12.1999 6.33496 12.0039C6.81643 11.8036 7.19827 11.5265 7.47949 11.1729C7.76041 10.8151 7.90128 10.3978 7.90137 9.9209C7.90137 9.48636 7.77987 9.13207 7.53711 8.85938C7.29424 8.58668 6.97436 8.36478 6.57812 8.19434C6.18182 8.02388 5.7532 7.87491 5.29297 7.74707L3.68262 7.28711C2.65989 6.99308 1.84952 6.5728 1.25293 6.02734C0.656657 5.482 0.358479 4.76848 0.358398 3.88672C0.358398 3.15376 0.556818 2.5142 0.953125 1.96875C1.35365 1.41914 1.89031 0.992957 2.56348 0.69043C3.24103 0.383611 3.99778 0.230469 4.83301 0.230469ZM13.3457 13.5H11.8369V3.68164H13.3457V13.5ZM31.5264 3.55371C32.191 3.55376 32.773 3.69022 33.2715 3.96289C33.7699 4.23136 34.1576 4.64082 34.4346 5.19043C34.7115 5.73586 34.8496 6.42657 34.8496 7.26172V13.5H33.3418V7.36328C33.3417 6.59222 33.1407 5.99185 32.7402 5.56152C32.3398 5.12696 31.7904 4.90928 31.0918 4.90918C30.6103 4.90918 30.1791 5.01385 29.7998 5.22266C29.425 5.43146 29.1294 5.73629 28.9121 6.13672C28.6948 6.53727 28.5859 7.02276 28.5859 7.59375V13.5H27.0771V3.68164H28.5342V5.21582H28.6621C28.8922 4.71724 29.2422 4.31721 29.7109 4.01465C30.1797 3.70783 30.7849 3.55371 31.5264 3.55371ZM39.1152 13.5H37.6064V3.68164H39.1152V13.5ZM46.3271 3.55371C46.9918 3.55376 47.5738 3.69022 48.0723 3.96289C48.5707 4.23136 48.9584 4.64082 49.2354 5.19043C49.5123 5.73586 49.6504 6.42657 49.6504 7.26172V13.5H48.1426V7.36328C48.1425 6.59222 47.9414 5.99185 47.541 5.56152C47.1405 5.12696 46.5912 4.90928 45.8926 4.90918C45.411 4.90918 44.9798 5.01385 44.6006 5.22266C44.2258 5.43146 43.9301 5.73629 43.7129 6.13672C43.4956 6.53727 43.3867 7.02276 43.3867 7.59375V13.5H41.8779V3.68164H43.335V5.21582H43.4629C43.693 4.71724 44.043 4.31721 44.5117 4.01465C44.9805 3.70783 45.5857 3.55371 46.3271 3.55371ZM20.0205 4.90918C19.3813 4.90918 18.848 5.07067 18.4219 5.39453C18 5.71839 17.6828 6.1538 17.4697 6.69922C17.261 7.24458 17.1562 7.85002 17.1562 8.51465C17.1563 9.19628 17.2635 9.79921 17.4766 10.3232C17.6939 10.843 18.0137 11.2525 18.4355 11.5508C18.8616 11.8446 19.3901 11.9912 20.0205 11.9912C20.6255 11.9912 21.1371 11.8531 21.5547 11.5762C21.9722 11.2992 22.2895 10.9006 22.5068 10.3809C22.7241 9.86108 22.833 9.23889 22.833 8.51465C22.833 7.80743 22.7266 7.1827 22.5137 6.6416C22.3006 6.10043 21.985 5.67596 21.5674 5.36914C21.1498 5.06236 20.6341 4.90921 20.0205 4.90918ZM12.6035 0C12.8975 0 13.1496 0.100497 13.3584 0.300781C13.5712 0.500949 13.6777 0.741451 13.6777 1.02246C13.6777 1.30368 13.5714 1.54485 13.3584 1.74512C13.1496 1.9454 12.8975 2.0459 12.6035 2.0459C12.3098 2.0458 12.0567 1.94512 11.8438 1.74512C11.6349 1.54483 11.5303 1.30371 11.5303 1.02246C11.5303 0.741325 11.635 0.501002 11.8438 0.300781C12.0567 0.100637 12.3097 9.50902e-05 12.6035 0ZM38.373 0C38.6671 0 38.9191 0.100497 39.1279 0.300781C39.3407 0.500949 39.4472 0.741451 39.4473 1.02246C39.4473 1.30368 39.341 1.54485 39.1279 1.74512C38.9191 1.9454 38.6671 2.0459 38.373 2.0459C38.0793 2.0458 37.8262 1.94512 37.6133 1.74512C37.4045 1.54483 37.2998 1.30371 37.2998 1.02246C37.2999 0.741325 37.4045 0.501002 37.6133 0.300781C37.8262 0.100637 38.0792 9.50902e-05 38.373 0Z" fill="white"/>
</svg>
